<svg width="252" height="85" viewBox="0 0 252 85" fill="none" xmlns="http://www.w3.org/2000/svg">
<path d="M239.583 0.0322266C242.379 -0.216205 244.466 0.9613 245.325 2.94727L250.858 16.3906C251.664 17.6308 251.903 19.3019 251.398 21.1943L241.929 56.7031C240.791 60.9722 236.3 64.7504 231.899 65.1416L199.105 68.0566C197.09 68.2357 195.348 67.6673 194.228 66.4668L189.47 61.3643V61.3662C188.332 65.6352 183.841 69.4134 179.44 69.8047L165.168 71.0732C162.508 71.3097 160.49 70.2533 159.561 68.4385C152.544 72.1731 144.843 73.7183 137.931 74.3457L137.899 74.3486C130.519 74.9908 122.772 74.701 117.378 71.5322C116.142 70.8059 115.066 69.9462 114.156 68.9609C112.664 70.159 111.069 71.256 109.377 72.2422C101.994 76.5476 93.7182 78.2612 86.3423 78.9307L86.311 78.9336C78.9311 79.5757 71.1843 79.2861 65.7905 76.1172C65.4259 75.9029 65.0747 75.6774 64.7378 75.4404C64.4186 75.6857 64.0941 75.926 63.7642 76.1582C59.159 79.3995 54.0729 80.9994 49.5835 81.3984L12.0786 84.7324C9.31799 84.9777 7.24783 83.8325 6.36963 81.8906L0.316895 67.3906C-0.0740177 66.3041 -0.116871 65.0004 0.26416 63.5713L9.73389 28.0615C10.8726 23.7928 15.3626 20.0154 19.7632 19.624L54.5718 16.5293C59.0932 16.1149 63.5578 16.866 66.6157 19.4258C67.1591 19.8807 67.6445 20.3871 68.0718 20.9365C69.1387 20.1613 70.2533 19.4328 71.4126 18.7578C78.8002 14.4564 87.0804 12.7509 94.4604 12.0811L94.4761 12.0801C101.872 11.4227 109.608 11.7119 114.993 14.8936C116.224 15.621 117.294 16.4812 118.2 17.4658C119.697 16.2626 121.3 15.1624 123 14.1729C130.387 9.87125 138.668 8.16497 146.048 7.49512L146.064 7.49414C152.995 6.87802 160.226 7.09414 165.54 9.74316C167.505 7.67372 170.195 6.20016 172.853 5.96387L187.125 4.69531C191.525 4.30429 194.17 7.44803 193.032 11.7168L200.807 5.50195L201.153 5.23438C202.903 3.92802 204.901 3.11518 206.79 2.94727L239.583 0.0322266ZM61.604 32.7373C63.3342 26.5478 58.8633 23.6693 52.5103 24.2598L17.7026 27.3545L8.23389 62.8633L45.7378 59.5293C52.0294 58.97 58.3103 55.1615 59.8843 48.96C61.0748 44.4951 59.1134 41.6776 55.3188 40.751C58.3633 38.9069 60.6951 36.1455 61.604 32.7373ZM112.77 34.9219C116.349 21.5004 106.197 18.5855 92.4155 19.8105C78.627 21.062 66.3222 25.9212 62.7905 39.3643L62.1001 41.9541C58.4669 55.3801 68.7076 58.2611 82.4819 57.0625C96.2432 55.8134 108.554 50.9274 112.079 37.5107L112.77 34.9219ZM45.23 46.6777C46.4554 46.5689 47.1455 47.6677 46.8286 48.8564C46.5116 50.0454 45.1871 51.3246 43.9614 51.4336L24.7603 53.1396L26.0278 48.3848L45.23 46.6777ZM164.357 30.3359C167.936 16.9145 157.785 13.9996 144.003 15.2246C130.215 16.4761 117.91 21.3361 114.378 34.7793L113.688 37.3682C110.055 50.7945 120.295 53.6761 134.07 52.4775C147.831 51.2285 160.142 46.3421 163.667 32.9258L164.357 30.3359ZM237.523 7.7627L223.25 9.03125L204.728 10.6777L188.067 23.998L181.83 24.5527L185.064 12.4258L170.792 13.6943L161.323 49.2041L175.594 47.9355L178.829 35.8076L185.065 35.2539L195.259 46.1875L213.782 44.54L228.054 43.2725L237.523 7.7627ZM89.4146 31.0654C95.2219 30.6266 99.8966 31.2429 98.272 37.0361L98.0396 37.9082C96.5711 43.7131 91.3325 45.2103 85.4829 45.8076C79.6483 46.2489 74.9735 45.633 76.605 39.8135L76.8374 38.9414C78.2986 33.1626 83.5376 31.6652 89.4146 31.0654ZM213.835 44.3389L199.749 28.4541L223.197 9.23242L213.835 44.3389ZM141.002 26.4795C146.81 26.0407 151.484 26.657 149.86 32.4502L149.627 33.3223C148.159 39.1274 142.92 40.6253 137.071 41.2227C131.236 41.6639 126.561 41.0473 128.193 35.2275L128.425 34.3555C129.887 28.5769 135.126 27.0793 141.002 26.4795ZM46.2593 33.0439C47.4849 32.935 48.1759 34.0347 47.8589 35.2236C47.5417 36.4125 46.2094 37.7172 44.9839 37.8262L28.4517 39.2959L29.7271 34.5137L46.2593 33.0439Z" fill="white"/>
</svg>
