<svg width="102" height="102" viewBox="0 0 102 102" fill="none" xmlns="http://www.w3.org/2000/svg">
<path fill-rule="evenodd" clip-rule="evenodd" d="M44.5123 70.7059C48.2247 69.541 52.0809 68.172 56.0001 66.6093C57.968 65.8247 59.8909 65.0156 61.7603 64.1882C62.6308 63.8028 63.4898 63.413 64.3363 63.0202C70.0572 60.3661 75.2099 57.5574 79.532 54.7792C81.0851 53.7808 82.5306 52.7862 83.8571 51.8044C87.2133 49.3205 89.8999 46.8483 91.6096 44.5234C93.2456 42.2988 94.3755 39.6592 93.383 37.17C92.3905 34.6808 89.7543 33.5428 87.0366 33.0541C84.1962 32.5434 80.5457 32.5979 76.4011 33.1047C72.0912 33.6317 67.1212 34.6641 61.7603 36.1634V29.728H44.5123V42.1303C43.3866 42.5915 42.2767 43.0603 41.1842 43.5357V41.712H37.3202V31.352H26.6802L20.4082 41.712H18.6162V48.824H20.1842V54.8773C19.4756 55.3651 18.7945 55.8509 18.1422 56.3337C14.786 58.8176 12.0994 61.2898 10.3897 63.6147C8.75371 65.8393 7.62377 68.4789 8.61627 70.9681C9.60878 73.4574 12.2449 74.5954 14.9627 75.084C17.8031 75.5947 21.4536 75.5402 25.5982 75.0334C31.0332 74.3688 37.5177 72.9006 44.5123 70.7059ZM76.3004 52.0904C78.1944 50.9092 79.9273 49.7365 81.4775 48.5892C84.6842 46.216 87.0146 44.02 88.3872 42.1536C89.8335 40.1869 89.8511 39.112 89.6675 38.6514C89.4838 38.1909 88.7315 37.423 86.3287 36.991C84.0486 36.581 80.8465 36.591 76.8866 37.0752C72.5179 37.6093 67.3679 38.7025 61.7603 40.3218V47.816L67.5843 41.712H83.0963L74.5283 50.616L76.3004 52.0904ZM44.5123 46.4618V66.508C43.6748 66.7786 42.8451 67.0386 42.0242 67.2877V63.888H37.3202V49.7048C37.9321 49.4097 38.552 49.116 39.1794 48.824H41.1842V47.9083C42.2735 47.4201 43.3834 46.9374 44.5123 46.4618ZM20.1842 59.8005V65.736L26.4323 70.888C25.985 70.9518 25.545 71.0101 25.1127 71.063C21.1528 71.5472 17.9507 71.5571 15.6705 71.1472C13.2678 70.7151 12.5155 69.9473 12.3318 69.4867C12.1482 69.0261 12.1658 67.9513 13.6121 65.9845C14.936 64.1842 17.1512 62.0773 20.1842 59.8005Z" fill="#BFEAFC"/>
<path d="M64.3363 71V69.9787C64.7317 69.5591 65.1223 69.1339 65.5108 68.7111C67.3547 66.7037 69.1516 64.7477 71.2025 63.6833C73.7514 62.3604 77.8996 60.2074 81.5283 58.0639V71H64.3363Z" fill="#BFEAFC"/>
</svg>
