<svg width="1404" height="126" viewBox="0 0 1404 126" fill="none" xmlns="http://www.w3.org/2000/svg">
<path d="M36 126V18H0V0H108V18H72V126H36Z" fill="#BFEAFC"/>
<path d="M180 126V72H162V54H144V0H180V54H216V0H252V54H234V72H216V126H180Z" fill="#BFEAFC"/>
<path d="M288 126V0H324V108H396V126H288Z" fill="#BFEAFC"/>
<path d="M414 126V0H540V18H450V54H522V72H450V108H540V126H414Z" fill="#BFEAFC"/>
<path d="M558 126V0H666V18H684V72H648V90H666V108H684V126H630V108H612V90H594V126H558ZM594 72H630V54H648V18H594V72Z" fill="#BFEAFC"/>
<path d="M846 126V0H882V54H900V36H918V18H936V0H972V18H954V36H936V54H918V72H936V90H954V108H972V126H918V108H900V90H882V126H846Z" fill="#BFEAFC"/>
<path d="M1008 126V108H990V0H1026V108H1080V0H1116V108H1098V126H1008Z" fill="#BFEAFC"/>
<path d="M1134 126V0H1170V18H1188V36H1206V54H1224V0H1260V126H1224V90H1206V72H1188V54H1170V126H1134Z" fill="#BFEAFC"/>
<path d="M1314 126V108H1296V90H1278V36H1296V18H1314V0H1404V18H1332V36H1314V90H1332V108H1368V72H1350V54H1404V126H1314Z" fill="#BFEAFC"/>
</svg>
